<?xml version="1.0" encoding="utf-8"?>
<!-- Generator: Adobe Illustrator 27.4.1, SVG Export Plug-In . SVG Version: 6.00 Build 0)  -->
<svg version="1.1" id="Layer_1" xmlns="http://www.w3.org/2000/svg" xmlns:xlink="http://www.w3.org/1999/xlink" x="0px" y="0px"
	 viewBox="0 0 595.28 841.89" style="enable-background:new 0 0 595.28 841.89;" xml:space="preserve">
<style type="text/css">
	.st0{fill:#FFFFFF;stroke:#66768A;stroke-width:2;stroke-miterlimit:10;}
	.st1{fill:#5C6674;}
	.st2{font-family:'TimesNewRomanPSMT';}
	.st3{font-size:17.9539px;}
	.st4{fill:none;stroke:#66768A;stroke-miterlimit:10;}
	.st5{stroke:#66768A;stroke-width:2;stroke-miterlimit:10;}
	.st6{fill:none;}
</style>
<g>
	<g>
		<circle class="st0" cx="297.64" cy="406.49" r="134.93"/>
		<text transform="matrix(1 0 0 1 395.4438 355.225)" class="st1 st2 st3">II</text>
		<text transform="matrix(1 0 0 1 408.3695 413.2407)" class="st1 st2 st3">III</text>
		<text transform="matrix(1 0 0 1 392.6742 467.7289)" class="st1 st2 st3">IV</text>
		<text transform="matrix(1 0 0 1 357.8461 511.1879)" class="st1 st2 st3">V</text>
		<text transform="matrix(1 0 0 1 288.1547 532.9633)" class="st1 st2 st3">VI</text>
		<text transform="matrix(1 0 0 1 216.2582 511.1879)" class="st1 st2 st3">VII</text>
		<text transform="matrix(1 0 0 1 178.7758 467.7289)" class="st1 st2 st3">VIII</text>
		<text transform="matrix(1 0 0 1 167.227 413.2407)" class="st1 st2 st3">IX</text>
		<text transform="matrix(1 0 0 1 183.0727 355.225)" class="st1 st2 st3">X</text>
		<text transform="matrix(1 0 0 1 213.1977 316.5063)" class="st1 st2 st3">XII</text>
		<text transform="matrix(1 0 0 1 282.3637 297.225)" class="st1 st2 st3">XIII</text>
		<circle class="st4" cx="297.64" cy="406.49" r="100.73"/>
		<line class="st5" x1="297.48" y1="343.32" x2="297.12" y2="407.48"/>
		<line class="st5" x1="385.49" y1="406.24" x2="297.11" y2="406.74"/>
		<text transform="matrix(1 0 0 1 358.0141 316.5063)" class="st1 st2 st3">I</text>
	</g>
	<path id="SVGID_x5F_1_x5F_" class="st6" d="M140.19,418.14c-6.59-87.64,60.47-164.66,147.22-170.38
		c85.56-5.65,161.48,59.96,168.12,146.37"/>
	<text>	<textPath  xlink:href="#SVGID_x5F_1_x5F_" startOffset="29.0039%">
<tspan  class="st2" style="fill:#565C67; font-size:39.2927px;">B         I         G</tspan>	</textPath>
</text>
	<path id="SVGID_x5F_00000153698782373052579760000015687149725493797779_x5F_" class="st6" d="M150.92,505.87
		c3.14,6.01,42.21,77.68,127.3,87.52c85.05,9.83,139.43-50.97,143.87-56.12"/>
	<text>	<textPath  xlink:href="#SVGID_x5F_00000153698782373052579760000015687149725493797779_x5F_" startOffset="25.1035%">
<tspan  class="st2" style="fill:#565C67; font-size:39.2927px;">B       E       N</tspan>	</textPath>
</text>
</g>
</svg>
